/* XPM */
static char *closeA[] = {
/* columns rows colors chars-per-pixel */
"38 76 7 1 ",
"  c #A9CDF2",
". c white",
"X c gray26",
"o c #D6D3CE",
"O c #848484",
"+ c black",
"C c #D4D0C8",
/* pixels */
"                                      ",
"                                      ",
"                                      ",
"                                      ",
"  ..............................XX    ",
"  ..............................XX    ",
"  ..ooooooooooooooooooooooooooOOXX    ",
"  ..ooooooooooooooooooooooooooOOXX    ",
"  ..ooooooooooooooooooooooooooOOXX    ",
"  ..ooooooooooooooooooooooooooOOXX    ",
"  ..oooooo++++oooooooo++++ooooOOXX    ",
"  ..oooooo++++oooooooo++++ooooOOXX    ",
"  ..oooooooo++++oooo++++ooooooOOXX    ",
"  ..oooooooo++++oooo++++ooooooOOXX    ",
"  ..oooooooooo++++++++ooooooooOOXX    ",
"  ..oooooooooo++++++++ooooooooOOXX    ",
"  ..oooooooooooo++++ooooooooooOOXX    ",
"  ..oooooooooooo++++ooooooooooOOXX    ",
"  ..oooooooooo++++++++ooooooooOOXX    ",
"  ..oooooooooo++++++++ooooooooOOXX    ",
"  ..oooooooo++++oooo++++ooooooOOXX    ",
"  ..oooooooo++++oooo++++ooooooOOXX    ",
"  ..oooooo++++oooooooo++++ooooOOXX    ",
"  ..oooooo++++oooooooo++++ooooOOXX    ",
"  ..ooooooooooooooooooooooooooOOXX    ",
"  ..ooooooooooooooooooooooooooOOXX    ",
"  ..ooooooooooooooooooooooooooOOXX    ",
"  ..ooooooooooooooooooooooooooOOXX    ",
"  ..OOOOOOOOOOOOOOOOOOOOOOOOOOOOXX    ",
"  ..OOOOOOOOOOOOOOOOOOOOOOOOOOOOXX    ",
"  XXXXXXXXXXXXXXXXXXXXXXXXXXXXXXXX    ",
"  XXXXXXXXXXXXXXXXXXXXXXXXXXXXXXXX    ",
"                                      ",
"                                      ",
"                                      ",
"                                      ",
"CCCCCCCCCCCCCCCCCCCCCCCCCCCCCCCCCCCCCC",
"CCCCCCCCCCCCCCCCCCCCCCCCCCCCCCCCCCCCCC",
"                                      ",
"                                      ",
"                                      ",
"                                      ",
"  XXXXXXXXXXXXXXXXXXXXXXXXXXXXXXXX    ",
"  XXXXXXXXXXXXXXXXXXXXXXXXXXXXXXXX    ",
"  XXOOOOOOOOOOOOOOOOOOOOOOOOOOOO..    ",
"  XXOOOOOOOOOOOOOOOOOOOOOOOOOOOO..    ",
"  XXOOoooooooooooooooooooooooooo..    ",
"  XXOOoooooooooooooooooooooooooo..    ",
"  XXOOoooooooooooooooooooooooooo..    ",
"  XXOOoooooooooooooooooooooooooo..    ",
"  XXOOoooo++++oooooooo++++oooooo..    ",
"  XXOOoooo++++oooooooo++++oooooo..    ",
"  XXOOoooooo++++oooo++++oooooooo..    ",
"  XXOOoooooo++++oooo++++oooooooo..    ",
"  XXOOoooooooo++++++++oooooooooo..    ",
"  XXOOoooooooo++++++++oooooooooo..    ",
"  XXOOoooooooooo++++oooooooooooo..    ",
"  XXOOoooooooooo++++oooooooooooo..    ",
"  XXOOoooooooo++++++++oooooooooo..    ",
"  XXOOoooooooo++++++++oooooooooo..    ",
"  XXOOoooooo++++oooo++++oooooooo..    ",
"  XXOOoooooo++++oooo++++oooooooo..    ",
"  XXOOoooo++++oooooooo++++oooooo..    ",
"  XXOOoooo++++oooooooo++++oooooo..    ",
"  XXOOoooooooooooooooooooooooooo..    ",
"  XXOOoooooooooooooooooooooooooo..    ",
"  XXOOoooooooooooooooooooooooooo..    ",
"  XXOOoooooooooooooooooooooooooo..    ",
"  XX..............................    ",
"  XX..............................    ",
"                                      ",
"                                      ",
"                                      ",
"                                      ",
"CCCCCCCCCCCCCCCCCCCCCCCCCCCCCCCCCCCCCC",
"CCCCCCCCCCCCCCCCCCCCCCCCCCCCCCCCCCCCCC"
};
