/* XPM */
static char *closeI[] = {
/* columns rows colors chars-per-pixel */
"38 76 6 1 ",
"  c black",
". c gray26",
"X c #848484",
"o c #C0C0C0",
"O c #D6D3CE",
"+ c white",
/* pixels */
"oooooooooooooooooooooooooooooooooooooo",
"oooooooooooooooooooooooooooooooooooooo",
"oooooooooooooooooooooooooooooooooooooo",
"oooooooooooooooooooooooooooooooooooooo",
"oo++++++++++++++++++++++++++++++..oooo",
"oo++++++++++++++++++++++++++++++..oooo",
"oo++OOOOOOOOOOOOOOOOOOOOOOOOOOXX..oooo",
"oo++OOOOOOOOOOOOOOOOOOOOOOOOOOXX..oooo",
"oo++OOOOOOOOOOOOOOOOOOOOOOOOOOXX..oooo",
"oo++OOOOOOOOOOOOOOOOOOOOOOOOOOXX..oooo",
"oo++OOOOOO    OOOOOOOO    OOOOXX..oooo",
"oo++OOOOOO    OOOOOOOO    OOOOXX..oooo",
"oo++OOOOOOOO    OOOO    OOOOOOXX..oooo",
"oo++OOOOOOOO    OOOO    OOOOOOXX..oooo",
"oo++OOOOOOOOOO        OOOOOOOOXX..oooo",
"oo++OOOOOOOOOO        OOOOOOOOXX..oooo",
"oo++OOOOOOOOOOOO    OOOOOOOOOOXX..oooo",
"oo++OOOOOOOOOOOO    OOOOOOOOOOXX..oooo",
"oo++OOOOOOOOOO        OOOOOOOOXX..oooo",
"oo++OOOOOOOOOO        OOOOOOOOXX..oooo",
"oo++OOOOOOOO    OOOO    OOOOOOXX..oooo",
"oo++OOOOOOOO    OOOO    OOOOOOXX..oooo",
"oo++OOOOOO    OOOOOOOO    OOOOXX..oooo",
"oo++OOOOOO    OOOOOOOO    OOOOXX..oooo",
"oo++OOOOOOOOOOOOOOOOOOOOOOOOOOXX..oooo",
"oo++OOOOOOOOOOOOOOOOOOOOOOOOOOXX..oooo",
"oo++OOOOOOOOOOOOOOOOOOOOOOOOOOXX..oooo",
"oo++OOOOOOOOOOOOOOOOOOOOOOOOOOXX..oooo",
"oo++XXXXXXXXXXXXXXXXXXXXXXXXXXXX..oooo",
"oo++XXXXXXXXXXXXXXXXXXXXXXXXXXXX..oooo",
"oo................................oooo",
"oo................................oooo",
"oooooooooooooooooooooooooooooooooooooo",
"oooooooooooooooooooooooooooooooooooooo",
"oooooooooooooooooooooooooooooooooooooo",
"oooooooooooooooooooooooooooooooooooooo",
"oooooooooooooooooooooooooooooooooooooo",
"oooooooooooooooooooooooooooooooooooooo",
"oooooooooooooooooooooooooooooooooooooo",
"oooooooooooooooooooooooooooooooooooooo",
"oooooooooooooooooooooooooooooooooooooo",
"oooooooooooooooooooooooooooooooooooooo",
"oo................................oooo",
"oo................................oooo",
"oo..XXXXXXXXXXXXXXXXXXXXXXXXXXXX++oooo",
"oo..XXXXXXXXXXXXXXXXXXXXXXXXXXXX++oooo",
"oo..XXOOOOOOOOOOOOOOOOOOOOOOOOOO++oooo",
"oo..XXOOOOOOOOOOOOOOOOOOOOOOOOOO++oooo",
"oo..XXOOOOOOOOOOOOOOOOOOOOOOOOOO++oooo",
"oo..XXOOOOOOOOOOOOOOOOOOOOOOOOOO++oooo",
"oo..XXOOOO    OOOOOOOO    OOOOOO++oooo",
"oo..XXOOOO    OOOOOOOO    OOOOOO++oooo",
"oo..XXOOOOOO    OOOO    OOOOOOOO++oooo",
"oo..XXOOOOOO    OOOO    OOOOOOOO++oooo",
"oo..XXOOOOOOOO        OOOOOOOOOO++oooo",
"oo..XXOOOOOOOO        OOOOOOOOOO++oooo",
"oo..XXOOOOOOOOOO    OOOOOOOOOOOO++oooo",
"oo..XXOOOOOOOOOO    OOOOOOOOOOOO++oooo",
"oo..XXOOOOOOOO        OOOOOOOOOO++oooo",
"oo..XXOOOOOOOO        OOOOOOOOOO++oooo",
"oo..XXOOOOOO    OOOO    OOOOOOOO++oooo",
"oo..XXOOOOOO    OOOO    OOOOOOOO++oooo",
"oo..XXOOOO    OOOOOOOO    OOOOOO++oooo",
"oo..XXOOOO    OOOOOOOO    OOOOOO++oooo",
"oo..XXOOOOOOOOOOOOOOOOOOOOOOOOOO++oooo",
"oo..XXOOOOOOOOOOOOOOOOOOOOOOOOOO++oooo",
"oo..XXOOOOOOOOOOOOOOOOOOOOOOOOOO++oooo",
"oo..XXOOOOOOOOOOOOOOOOOOOOOOOOOO++oooo",
"oo..++++++++++++++++++++++++++++++oooo",
"oo..++++++++++++++++++++++++++++++oooo",
"oooooooooooooooooooooooooooooooooooooo",
"oooooooooooooooooooooooooooooooooooooo",
"oooooooooooooooooooooooooooooooooooooo",
"oooooooooooooooooooooooooooooooooooooo",
"oooooooooooooooooooooooooooooooooooooo",
"oooooooooooooooooooooooooooooooooooooo"
};
