/* XPM */
static char *maximizeI[] = {
/* columns rows colors chars-per-pixel */
"34 76 6 1 ",
"  c black",
". c gray26",
"X c #848484",
"o c #C0C0C0",
"O c #D6D3CE",
"+ c white",
/* pixels */
"oooooooooooooooooooooooooooooooooo",
"oooooooooooooooooooooooooooooooooo",
"oooooooooooooooooooooooooooooooooo",
"oooooooooooooooooooooooooooooooooo",
"++++++++++++++++++++++++++++++..oo",
"++++++++++++++++++++++++++++++..oo",
"++OOOOOOOOOOOOOOOOOOOOOOOOOOXX..oo",
"++OOOOOOOOOOOOOOOOOOOOOOOOOOXX..oo",
"++OOOO                  OOOOXX..oo",
"++OOOO                  OOOOXX..oo",
"++OOOO                  OOOOXX..oo",
"++OOOO                  OOOOXX..oo",
"++OOOO  OOOOOOOOOOOOOO  OOOOXX..oo",
"++OOOO  OOOOOOOOOOOOOO  OOOOXX..oo",
"++OOOO  OOOOOOOOOOOOOO  OOOOXX..oo",
"++OOOO  OOOOOOOOOOOOOO  OOOOXX..oo",
"++OOOO  OOOOOOOOOOOOOO  OOOOXX..oo",
"++OOOO  OOOOOOOOOOOOOO  OOOOXX..oo",
"++OOOO  OOOOOOOOOOOOOO  OOOOXX..oo",
"++OOOO  OOOOOOOOOOOOOO  OOOOXX..oo",
"++OOOO  OOOOOOOOOOOOOO  OOOOXX..oo",
"++OOOO  OOOOOOOOOOOOOO  OOOOXX..oo",
"++OOOO  OOOOOOOOOOOOOO  OOOOXX..oo",
"++OOOO  OOOOOOOOOOOOOO  OOOOXX..oo",
"++OOOO                  OOOOXX..oo",
"++OOOO                  OOOOXX..oo",
"++OOOOOOOOOOOOOOOOOOOOOOOOOOXX..oo",
"++OOOOOOOOOOOOOOOOOOOOOOOOOOXX..oo",
"++XXXXXXXXXXXXXXXXXXXXXXXXXXXX..oo",
"++XXXXXXXXXXXXXXXXXXXXXXXXXXXX..oo",
"................................oo",
"................................oo",
"oooooooooooooooooooooooooooooooooo",
"oooooooooooooooooooooooooooooooooo",
"oooooooooooooooooooooooooooooooooo",
"oooooooooooooooooooooooooooooooooo",
"oooooooooooooooooooooooooooooooooo",
"oooooooooooooooooooooooooooooooooo",
"oooooooooooooooooooooooooooooooooo",
"oooooooooooooooooooooooooooooooooo",
"oooooooooooooooooooooooooooooooooo",
"oooooooooooooooooooooooooooooooooo",
"................................oo",
"................................oo",
"..XXXXXXXXXXXXXXXXXXXXXXXXXXXX++oo",
"..XXXXXXXXXXXXXXXXXXXXXXXXXXXX++oo",
"..XXOOOOOOOOOOOOOOOOOOOOOOOOOO++oo",
"..XXOOOOOOOOOOOOOOOOOOOOOOOOOO++oo",
"..XXOOOO                  OOOO++oo",
"..XXOOOO                  OOOO++oo",
"..XXOOOO                  OOOO++oo",
"..XXOOOO                  OOOO++oo",
"..XXOOOO  OOOOOOOOOOOOOO  OOOO++oo",
"..XXOOOO  OOOOOOOOOOOOOO  OOOO++oo",
"..XXOOOO  OOOOOOOOOOOOOO  OOOO++oo",
"..XXOOOO  OOOOOOOOOOOOOO  OOOO++oo",
"..XXOOOO  OOOOOOOOOOOOOO  OOOO++oo",
"..XXOOOO  OOOOOOOOOOOOOO  OOOO++oo",
"..XXOOOO  OOOOOOOOOOOOOO  OOOO++oo",
"..XXOOOO  OOOOOOOOOOOOOO  OOOO++oo",
"..XXOOOO  OOOOOOOOOOOOOO  OOOO++oo",
"..XXOOOO  OOOOOOOOOOOOOO  OOOO++oo",
"..XXOOOO  OOOOOOOOOOOOOO  OOOO++oo",
"..XXOOOO  OOOOOOOOOOOOOO  OOOO++oo",
"..XXOOOO                  OOOO++oo",
"..XXOOOO                  OOOO++oo",
"..XXOOOOOOOOOOOOOOOOOOOOOOOOOO++oo",
"..XXOOOOOOOOOOOOOOOOOOOOOOOOOO++oo",
"..++++++++++++++++++++++++++++++oo",
"..++++++++++++++++++++++++++++++oo",
"oooooooooooooooooooooooooooooooooo",
"oooooooooooooooooooooooooooooooooo",
"oooooooooooooooooooooooooooooooooo",
"oooooooooooooooooooooooooooooooooo",
"oooooooooooooooooooooooooooooooooo",
"oooooooooooooooooooooooooooooooooo"
};
