/* XPM */
static char *maximizeA[] = {
/* columns rows colors chars-per-pixel */
"34 76 7 1 ",
"  c #A9CDF2",
". c white",
"X c gray26",
"o c #D6D3CE",
"O c #848484",
"+ c black",
"C c #D4D0C8",
/* pixels */
"                                  ",
"                                  ",
"                                  ",
"                                  ",
"..............................XX  ",
"..............................XX  ",
"..ooooooooooooooooooooooooooOOXX  ",
"..ooooooooooooooooooooooooooOOXX  ",
"..oooo++++++++++++++++++ooooOOXX  ",
"..oooo++++++++++++++++++ooooOOXX  ",
"..oooo++++++++++++++++++ooooOOXX  ",
"..oooo++++++++++++++++++ooooOOXX  ",
"..oooo++oooooooooooooo++ooooOOXX  ",
"..oooo++oooooooooooooo++ooooOOXX  ",
"..oooo++oooooooooooooo++ooooOOXX  ",
"..oooo++oooooooooooooo++ooooOOXX  ",
"..oooo++oooooooooooooo++ooooOOXX  ",
"..oooo++oooooooooooooo++ooooOOXX  ",
"..oooo++oooooooooooooo++ooooOOXX  ",
"..oooo++oooooooooooooo++ooooOOXX  ",
"..oooo++oooooooooooooo++ooooOOXX  ",
"..oooo++oooooooooooooo++ooooOOXX  ",
"..oooo++oooooooooooooo++ooooOOXX  ",
"..oooo++oooooooooooooo++ooooOOXX  ",
"..oooo++++++++++++++++++ooooOOXX  ",
"..oooo++++++++++++++++++ooooOOXX  ",
"..ooooooooooooooooooooooooooOOXX  ",
"..ooooooooooooooooooooooooooOOXX  ",
"..OOOOOOOOOOOOOOOOOOOOOOOOOOOOXX  ",
"..OOOOOOOOOOOOOOOOOOOOOOOOOOOOXX  ",
"XXXXXXXXXXXXXXXXXXXXXXXXXXXXXXXX  ",
"XXXXXXXXXXXXXXXXXXXXXXXXXXXXXXXX  ",
"                                  ",
"                                  ",
"                                  ",
"                                  ",
"CCCCCCCCCCCCCCCCCCCCCCCCCCCCCCCCCC",
"CCCCCCCCCCCCCCCCCCCCCCCCCCCCCCCCCC",
"                                  ",
"                                  ",
"                                  ",
"                                  ",
"XXXXXXXXXXXXXXXXXXXXXXXXXXXXXXXX  ",
"XXXXXXXXXXXXXXXXXXXXXXXXXXXXXXXX  ",
"XXOOOOOOOOOOOOOOOOOOOOOOOOOOOO..  ",
"XXOOOOOOOOOOOOOOOOOOOOOOOOOOOO..  ",
"XXOOoooooooooooooooooooooooooo..  ",
"XXOOoooooooooooooooooooooooooo..  ",
"XXOOoooo++++++++++++++++++oooo..  ",
"XXOOoooo++++++++++++++++++oooo..  ",
"XXOOoooo++++++++++++++++++oooo..  ",
"XXOOoooo++++++++++++++++++oooo..  ",
"XXOOoooo++oooooooooooooo++oooo..  ",
"XXOOoooo++oooooooooooooo++oooo..  ",
"XXOOoooo++oooooooooooooo++oooo..  ",
"XXOOoooo++oooooooooooooo++oooo..  ",
"XXOOoooo++oooooooooooooo++oooo..  ",
"XXOOoooo++oooooooooooooo++oooo..  ",
"XXOOoooo++oooooooooooooo++oooo..  ",
"XXOOoooo++oooooooooooooo++oooo..  ",
"XXOOoooo++oooooooooooooo++oooo..  ",
"XXOOoooo++oooooooooooooo++oooo..  ",
"XXOOoooo++oooooooooooooo++oooo..  ",
"XXOOoooo++oooooooooooooo++oooo..  ",
"XXOOoooo++++++++++++++++++oooo..  ",
"XXOOoooo++++++++++++++++++oooo..  ",
"XXOOoooooooooooooooooooooooooo..  ",
"XXOOoooooooooooooooooooooooooo..  ",
"XX..............................  ",
"XX..............................  ",
"                                  ",
"                                  ",
"                                  ",
"                                  ",
"CCCCCCCCCCCCCCCCCCCCCCCCCCCCCCCCCC",
"CCCCCCCCCCCCCCCCCCCCCCCCCCCCCCCCCC"
};
