/* XPM */
static char *minimizeI[] = {
/* columns rows colors chars-per-pixel */
"34 76 6 1 ",
"  c black",
". c gray26",
"X c #848484",
"o c #C0C0C0",
"O c #D6D3CE",
"+ c white",
/* pixels */
"oooooooooooooooooooooooooooooooooo",
"oooooooooooooooooooooooooooooooooo",
"oooooooooooooooooooooooooooooooooo",
"oooooooooooooooooooooooooooooooooo",
"oo++++++++++++++++++++++++++++++..",
"oo++++++++++++++++++++++++++++++..",
"oo++OOOOOOOOOOOOOOOOOOOOOOOOOOXX..",
"oo++OOOOOOOOOOOOOOOOOOOOOOOOOOXX..",
"oo++OOOOOOOOOOOOOOOOOOOOOOOOOOXX..",
"oo++OOOOOOOOOOOOOOOOOOOOOOOOOOXX..",
"oo++OOOOOOOOOOOOOOOOOOOOOOOOOOXX..",
"oo++OOOOOOOOOOOOOOOOOOOOOOOOOOXX..",
"oo++OOOOOOOOOOOOOOOOOOOOOOOOOOXX..",
"oo++OOOOOOOOOOOOOOOOOOOOOOOOOOXX..",
"oo++OOOOOOOOOOOOOOOOOOOOOOOOOOXX..",
"oo++OOOOOOOOOOOOOOOOOOOOOOOOOOXX..",
"oo++OOOOOOOOOOOOOOOOOOOOOOOOOOXX..",
"oo++OOOOOOOOOOOOOOOOOOOOOOOOOOXX..",
"oo++OOOOOOOOOOOOOOOOOOOOOOOOOOXX..",
"oo++OOOOOOOOOOOOOOOOOOOOOOOOOOXX..",
"oo++OOOOOOOOOOOOOOOOOOOOOOOOOOXX..",
"oo++OOOOOOOOOOOOOOOOOOOOOOOOOOXX..",
"oo++OOOO              OOOOOOOOXX..",
"oo++OOOO              OOOOOOOOXX..",
"oo++OOOO              OOOOOOOOXX..",
"oo++OOOO              OOOOOOOOXX..",
"oo++OOOOOOOOOOOOOOOOOOOOOOOOOOXX..",
"oo++OOOOOOOOOOOOOOOOOOOOOOOOOOXX..",
"oo++XXXXXXXXXXXXXXXXXXXXXXXXXXXX..",
"oo++XXXXXXXXXXXXXXXXXXXXXXXXXXXX..",
"oo................................",
"oo................................",
"oooooooooooooooooooooooooooooooooo",
"oooooooooooooooooooooooooooooooooo",
"oooooooooooooooooooooooooooooooooo",
"oooooooooooooooooooooooooooooooooo",
"oooooooooooooooooooooooooooooooooo",
"oooooooooooooooooooooooooooooooooo",
"oooooooooooooooooooooooooooooooooo",
"oooooooooooooooooooooooooooooooooo",
"oooooooooooooooooooooooooooooooooo",
"oooooooooooooooooooooooooooooooooo",
"oo................................",
"oo................................",
"oo..XXXXXXXXXXXXXXXXXXXXXXXXXXXX++",
"oo..XXXXXXXXXXXXXXXXXXXXXXXXXXXX++",
"oo..XXOOOOOOOOOOOOOOOOOOOOOOOOOO++",
"oo..XXOOOOOOOOOOOOOOOOOOOOOOOOOO++",
"oo..XXOOOOOOOOOOOOOOOOOOOOOOOOOO++",
"oo..XXOOOOOOOOOOOOOOOOOOOOOOOOOO++",
"oo..XXOOOOOOOOOOOOOOOOOOOOOOOOOO++",
"oo..XXOOOOOOOOOOOOOOOOOOOOOOOOOO++",
"oo..XXOOOOOOOOOOOOOOOOOOOOOOOOOO++",
"oo..XXOOOOOOOOOOOOOOOOOOOOOOOOOO++",
"oo..XXOOOOOOOOOOOOOOOOOOOOOOOOOO++",
"oo..XXOOOOOOOOOOOOOOOOOOOOOOOOOO++",
"oo..XXOOOOOOOOOOOOOOOOOOOOOOOOOO++",
"oo..XXOOOOOOOOOOOOOOOOOOOOOOOOOO++",
"oo..XXOOOOOOOOOOOOOOOOOOOOOOOOOO++",
"oo..XXOOOOOOOOOOOOOOOOOOOOOOOOOO++",
"oo..XXOOOOOOOOOOOOOOOOOOOOOOOOOO++",
"oo..XXOOOOOOOOOOOOOOOOOOOOOOOOOO++",
"oo..XXOO              OOOOOOOOOO++",
"oo..XXOO              OOOOOOOOOO++",
"oo..XXOO              OOOOOOOOOO++",
"oo..XXOO              OOOOOOOOOO++",
"oo..XXOOOOOOOOOOOOOOOOOOOOOOOOOO++",
"oo..XXOOOOOOOOOOOOOOOOOOOOOOOOOO++",
"oo..++++++++++++++++++++++++++++++",
"oo..++++++++++++++++++++++++++++++",
"oooooooooooooooooooooooooooooooooo",
"oooooooooooooooooooooooooooooooooo",
"oooooooooooooooooooooooooooooooooo",
"oooooooooooooooooooooooooooooooooo",
"oooooooooooooooooooooooooooooooooo",
"oooooooooooooooooooooooooooooooooo"
};
