/* XPM */
static char *minimizeA[] = {
/* columns rows colors chars-per-pixel */
"34 76 7 1 ",
"  c #A9CDF2",
". c white",
"X c gray26",
"o c #D6D3CE",
"O c #848484",
"+ c black",
"C c #D4D0C8",
/* pixels */
"                                  ",
"                                  ",
"                                  ",
"                                  ",
"  ..............................XX",
"  ..............................XX",
"  ..ooooooooooooooooooooooooooOOXX",
"  ..ooooooooooooooooooooooooooOOXX",
"  ..ooooooooooooooooooooooooooOOXX",
"  ..ooooooooooooooooooooooooooOOXX",
"  ..ooooooooooooooooooooooooooOOXX",
"  ..ooooooooooooooooooooooooooOOXX",
"  ..ooooooooooooooooooooooooooOOXX",
"  ..ooooooooooooooooooooooooooOOXX",
"  ..ooooooooooooooooooooooooooOOXX",
"  ..ooooooooooooooooooooooooooOOXX",
"  ..ooooooooooooooooooooooooooOOXX",
"  ..ooooooooooooooooooooooooooOOXX",
"  ..ooooooooooooooooooooooooooOOXX",
"  ..ooooooooooooooooooooooooooOOXX",
"  ..ooooooooooooooooooooooooooOOXX",
"  ..ooooooooooooooooooooooooooOOXX",
"  ..oooo++++++++++++++ooooooooOOXX",
"  ..oooo++++++++++++++ooooooooOOXX",
"  ..oooo++++++++++++++ooooooooOOXX",
"  ..oooo++++++++++++++ooooooooOOXX",
"  ..ooooooooooooooooooooooooooOOXX",
"  ..ooooooooooooooooooooooooooOOXX",
"  ..OOOOOOOOOOOOOOOOOOOOOOOOOOOOXX",
"  ..OOOOOOOOOOOOOOOOOOOOOOOOOOOOXX",
"  XXXXXXXXXXXXXXXXXXXXXXXXXXXXXXXX",
"  XXXXXXXXXXXXXXXXXXXXXXXXXXXXXXXX",
"                                  ",
"                                  ",
"                                  ",
"                                  ",
"CCCCCCCCCCCCCCCCCCCCCCCCCCCCCCCCCC",
"CCCCCCCCCCCCCCCCCCCCCCCCCCCCCCCCCC",
"                                  ",
"                                  ",
"                                  ",
"                                  ",
"  XXXXXXXXXXXXXXXXXXXXXXXXXXXXXXXX",
"  XXXXXXXXXXXXXXXXXXXXXXXXXXXXXXXX",
"  XXOOOOOOOOOOOOOOOOOOOOOOOOOOOO..",
"  XXOOOOOOOOOOOOOOOOOOOOOOOOOOOO..",
"  XXOOoooooooooooooooooooooooooo..",
"  XXOOoooooooooooooooooooooooooo..",
"  XXOOoooooooooooooooooooooooooo..",
"  XXOOoooooooooooooooooooooooooo..",
"  XXOOoooooooooooooooooooooooooo..",
"  XXOOoooooooooooooooooooooooooo..",
"  XXOOoooooooooooooooooooooooooo..",
"  XXOOoooooooooooooooooooooooooo..",
"  XXOOoooooooooooooooooooooooooo..",
"  XXOOoooooooooooooooooooooooooo..",
"  XXOOoooooooooooooooooooooooooo..",
"  XXOOoooooooooooooooooooooooooo..",
"  XXOOoooooooooooooooooooooooooo..",
"  XXOOoooooooooooooooooooooooooo..",
"  XXOOoooooooooooooooooooooooooo..",
"  XXOOoooooooooooooooooooooooooo..",
"  XXOOoo++++++++++++++oooooooooo..",
"  XXOOoo++++++++++++++oooooooooo..",
"  XXOOoo++++++++++++++oooooooooo..",
"  XXOOoo++++++++++++++oooooooooo..",
"  XXOOoooooooooooooooooooooooooo..",
"  XXOOoooooooooooooooooooooooooo..",
"  XX..............................",
"  XX..............................",
"                                  ",
"                                  ",
"                                  ",
"                                  ",
"CCCCCCCCCCCCCCCCCCCCCCCCCCCCCCCCCC",
"CCCCCCCCCCCCCCCCCCCCCCCCCCCCCCCCCC"
};
