/* XPM */
static char *restoreI[] = {
/* columns rows colors chars-per-pixel */
"34 76 6 1 ",
"  c black",
". c gray26",
"X c #848484",
"o c #C0C0C0",
"O c #D6D3CE",
"+ c white",
/* pixels */
"oooooooooooooooooooooooooooooooooo",
"oooooooooooooooooooooooooooooooooo",
"oooooooooooooooooooooooooooooooooo",
"oooooooooooooooooooooooooooooooooo",
"++++++++++++++++++++++++++++++..oo",
"++++++++++++++++++++++++++++++..oo",
"++OOOOOOOOOOOOOOOOOOOOOOOOOOXX..oo",
"++OOOOOOOOOOOOOOOOOOOOOOOOOOXX..oo",
"++OOOOOOOO            OOOOOOXX..oo",
"++OOOOOOOO            OOOOOOXX..oo",
"++OOOOOOOO            OOOOOOXX..oo",
"++OOOOOOOO            OOOOOOXX..oo",
"++OOOOOOOO  OOOOOOOO  OOOOOOXX..oo",
"++OOOOOOOO  OOOOOOOO  OOOOOOXX..oo",
"++OOOO            OO  OOOOOOXX..oo",
"++OOOO            OO  OOOOOOXX..oo",
"++OOOO            OO  OOOOOOXX..oo",
"++OOOO            OO  OOOOOOXX..oo",
"++OOOO  OOOOOOOO      OOOOOOXX..oo",
"++OOOO  OOOOOOOO      OOOOOOXX..oo",
"++OOOO  OOOOOOOO  OOOOOOOOOOXX..oo",
"++OOOO  OOOOOOOO  OOOOOOOOOOXX..oo",
"++OOOO  OOOOOOOO  OOOOOOOOOOXX..oo",
"++OOOO  OOOOOOOO  OOOOOOOOOOXX..oo",
"++OOOO            OOOOOOOOOOXX..oo",
"++OOOO            OOOOOOOOOOXX..oo",
"++OOOOOOOOOOOOOOOOOOOOOOOOOOXX..oo",
"++OOOOOOOOOOOOOOOOOOOOOOOOOOXX..oo",
"++XXXXXXXXXXXXXXXXXXXXXXXXXXXX..oo",
"++XXXXXXXXXXXXXXXXXXXXXXXXXXXX..oo",
"................................oo",
"................................oo",
"oooooooooooooooooooooooooooooooooo",
"oooooooooooooooooooooooooooooooooo",
"oooooooooooooooooooooooooooooooooo",
"oooooooooooooooooooooooooooooooooo",
"oooooooooooooooooooooooooooooooooo",
"oooooooooooooooooooooooooooooooooo",
"oooooooooooooooooooooooooooooooooo",
"oooooooooooooooooooooooooooooooooo",
"oooooooooooooooooooooooooooooooooo",
"oooooooooooooooooooooooooooooooooo",
"................................oo",
"................................oo",
"..XXXXXXXXXXXXXXXXXXXXXXXXXXXX++oo",
"..XXXXXXXXXXXXXXXXXXXXXXXXXXXX++oo",
"..XXOOOOOOXXXXXXXXXXXXOOOOOOOO++oo",
"..XXOOOOOOXXXXXXXXXXXXOOOOOOOO++oo",
"..XXOOOOOO            OOOOOOOO++oo",
"..XXOOOOOO            OOOOOOOO++oo",
"..XXOOOOOO            OOOOOOOO++oo",
"..XXOOOOOO            OOOOOOOO++oo",
"..XXOOXXXX  XXXXXXOO  OOOOOOOO++oo",
"..XXOOXXXX  XXXXXXOO  OOOOOOOO++oo",
"..XXOO            OO  OOOOOOOO++oo",
"..XXOO            OO  OOOOOOOO++oo",
"..XXOO            XX  OOOOOOOO++oo",
"..XXOO            XX  OOOOOOOO++oo",
"..XXOO  OOOOOOOO      OOOOOOOO++oo",
"..XXOO  OOOOOOOO      OOOOOOOO++oo",
"..XXOO  OOOOOOOO  OOOOOOOOOOOO++oo",
"..XXOO  OOOOOOOO  OOOOOOOOOOOO++oo",
"..XXOO  XXXXXXXX  OOOOOOOOOOOO++oo",
"..XXOO  XXXXXXXX  OOOOOOOOOOOO++oo",
"..XXOO            OOOOOOOOOOOO++oo",
"..XXOO            OOOOOOOOOOOO++oo",
"..XXOOOOOOOOOOOOOOOOOOOOOOOOOO++oo",
"..XXOOOOOOOOOOOOOOOOOOOOOOOOOO++oo",
"..++++++++++++++++++++++++++++++oo",
"..++++++++++++++++++++++++++++++oo",
"oooooooooooooooooooooooooooooooooo",
"oooooooooooooooooooooooooooooooooo",
"oooooooooooooooooooooooooooooooooo",
"oooooooooooooooooooooooooooooooooo",
"oooooooooooooooooooooooooooooooooo",
"oooooooooooooooooooooooooooooooooo"
};
