/* XPM */
static char *restoreA[] = {
/* columns rows colors chars-per-pixel */
"34 76 6 1 ",
"  c #A9CDF2",
". c white",
"X c gray26",
"o c #D6D3CE",
"O c #848484",
"+ c black",
/* pixels */
"                                  ",
"                                  ",
"                                  ",
"                                  ",
"..............................XX  ",
"..............................XX  ",
"..ooooooooooooooooooooooooooOOXX  ",
"..ooooooooooooooooooooooooooOOXX  ",
"..oooooooo++++++++++++ooooooOOXX  ",
"..oooooooo++++++++++++ooooooOOXX  ",
"..oooooooo++++++++++++ooooooOOXX  ",
"..oooooooo++++++++++++ooooooOOXX  ",
"..oooooooo++oooooooo++ooooooOOXX  ",
"..oooooooo++oooooooo++ooooooOOXX  ",
"..oooo++++++++++++oo++ooooooOOXX  ",
"..oooo++++++++++++oo++ooooooOOXX  ",
"..oooo++++++++++++oo++ooooooOOXX  ",
"..oooo++++++++++++oo++ooooooOOXX  ",
"..oooo++oooooooo++++++ooooooOOXX  ",
"..oooo++oooooooo++++++ooooooOOXX  ",
"..oooo++oooooooo++ooooooooooOOXX  ",
"..oooo++oooooooo++ooooooooooOOXX  ",
"..oooo++oooooooo++ooooooooooOOXX  ",
"..oooo++oooooooo++ooooooooooOOXX  ",
"..oooo++++++++++++ooooooooooOOXX  ",
"..oooo++++++++++++ooooooooooOOXX  ",
"..ooooooooooooooooooooooooooOOXX  ",
"..ooooooooooooooooooooooooooOOXX  ",
"..OOOOOOOOOOOOOOOOOOOOOOOOOOOOXX  ",
"..OOOOOOOOOOOOOOOOOOOOOOOOOOOOXX  ",
"XXXXXXXXXXXXXXXXXXXXXXXXXXXXXXXX  ",
"XXXXXXXXXXXXXXXXXXXXXXXXXXXXXXXX  ",
"                                  ",
"                                  ",
"                                  ",
"                                  ",
"                                  ",
"                                  ",
"                                  ",
"                                  ",
"                                  ",
"                                  ",
"XXXXXXXXXXXXXXXXXXXXXXXXXXXXXXXX  ",
"XXXXXXXXXXXXXXXXXXXXXXXXXXXXXXXX  ",
"XXOOOOOOOOOOOOOOOOOOOOOOOOOOOO..  ",
"XXOOOOOOOOOOOOOOOOOOOOOOOOOOOO..  ",
"XXOOooooooOOOOOOOOOOOOoooooooo..  ",
"XXOOooooooOOOOOOOOOOOOoooooooo..  ",
"XXOOoooooo++++++++++++oooooooo..  ",
"XXOOoooooo++++++++++++oooooooo..  ",
"XXOOoooooo++++++++++++oooooooo..  ",
"XXOOoooooo++++++++++++oooooooo..  ",
"XXOOooOOOO++OOOOOOoo++oooooooo..  ",
"XXOOooOOOO++OOOOOOoo++oooooooo..  ",
"XXOOoo++++++++++++oo++oooooooo..  ",
"XXOOoo++++++++++++oo++oooooooo..  ",
"XXOOoo++++++++++++OO++oooooooo..  ",
"XXOOoo++++++++++++OO++oooooooo..  ",
"XXOOoo++oooooooo++++++oooooooo..  ",
"XXOOoo++oooooooo++++++oooooooo..  ",
"XXOOoo++oooooooo++oooooooooooo..  ",
"XXOOoo++oooooooo++oooooooooooo..  ",
"XXOOoo++OOOOOOOO++oooooooooooo..  ",
"XXOOoo++OOOOOOOO++oooooooooooo..  ",
"XXOOoo++++++++++++oooooooooooo..  ",
"XXOOoo++++++++++++oooooooooooo..  ",
"XXOOoooooooooooooooooooooooooo..  ",
"XXOOoooooooooooooooooooooooooo..  ",
"XX..............................  ",
"XX..............................  ",
"                                  ",
"                                  ",
"                                  ",
"                                  ",
"                                  ",
"                                  "
};
