/* XPM */
static char *titleAB[] = {
/* columns rows colors chars-per-pixel */
"4 38 3 1 ",
"  c #0A246A",
". c #A6CAF0",
"X c #D4D0C8",
/* pixels */
"  ..",
"  ..",
"  ..",
"  ..",
"  ..",
"  ..",
"  ..",
"  ..",
"  ..",
"  ..",
"  ..",
"  ..",
"  ..",
"  ..",
"  ..",
"  ..",
"  ..",
"  ..",
"  ..",
"  ..",
"  ..",
"  ..",
"  ..",
"  ..",
"  ..",
"  ..",
"  ..",
"  ..",
"  ..",
"  ..",
"  ..",
"  ..",
"  ..",
"  ..",
"  ..",
"  ..",
"XXXX",
"XXXX"
};
