/* XPM */
static char *titleIT[] = {
/* columns rows colors chars-per-pixel */
"4 38 3 1 ",
"  c #808080",
". c #C0C0C0",
"X c #D4D0C8",
/* pixels */
"  ..",
"  ..",
"  ..",
"  ..",
"  ..",
"  ..",
"  ..",
"  ..",
"  ..",
"  ..",
"  ..",
"  ..",
"  ..",
"  ..",
"  ..",
"  ..",
"  ..",
"  ..",
"  ..",
"  ..",
"  ..",
"  ..",
"  ..",
"  ..",
"  ..",
"  ..",
"  ..",
"  ..",
"  ..",
"  ..",
"  ..",
"  ..",
"  ..",
"  ..",
"  ..",
"  ..",
"XXXX",
"XXXX"
};
